<svg aria-hidden="true" style="position: absolute; width: 0; height: 0; overflow: hidden;" version="1.1" xmlns="http://www.w3.org/2000/svg" xmlns:xlink="http://www.w3.org/1999/xlink">
<defs>
<symbol id="icon-logo" viewBox="0 0 32 32">
<path d="M18.357 4.853c-0.971 0.181-1.643 0.395-2.496 0.8-0.352 0.181-0.789 0.32-0.949 0.32-0.192 0-0.288 0.043-0.245 0.117 0.043 0.064-0.021 0.213-0.139 0.341s-0.267 0.363-0.331 0.533c-0.064 0.16-0.224 0.341-0.352 0.395-0.139 0.053-0.192 0.096-0.117 0.096 0.096 0.011 0.085 0.085-0.021 0.299-0.085 0.171-0.171 0.384-0.203 0.48-0.053 0.171-0.203 0.192-1.077 0.192h-1.013v-0.309c0-0.245-0.053-0.331-0.235-0.363-0.139-0.021 0.053-0.053 0.427-0.064 0.757-0.011 0.917-0.224 0.171-0.224h-0.491l0.064-0.373c0.075-0.363 0.064-0.373-0.256-0.373s-0.331-0.011-0.256-0.352c0.107-0.48 0.064-1.141-0.075-1.312-0.096-0.117-0.64-0.149-2.549-0.149-2.208 0-2.443 0.021-2.645 0.203-0.256 0.213-0.32 0.651-0.096 0.651 0.075 0 0.085 0.032 0.021 0.085-0.053 0.043-0.117 0.256-0.128 0.469-0.032 0.363-0.011 0.405 0.235 0.405 0.235 0 0.267 0.043 0.267 0.373 0 0.373 0 0.373 0.48 0.373 0.747 0 0.565 0.213-0.181 0.224-0.373 0.011-0.587 0.032-0.491 0.064 0.128 0.032 0.192 0.149 0.192 0.352v0.309l1.152 0.043c0.875 0.021 0.725 0.032-0.64 0.053-1.717 0.021-1.792 0.032-1.792 0.235 0 0.192 0.075 0.213 0.693 0.213s0.693 0.021 0.693 0.213c0 0.192 0.075 0.213 0.907 0.213 0.736 0 0.907 0.032 0.907 0.16s-0.192 0.16-1.035 0.171c-0.576 0-0.981 0.032-0.907 0.064 0.064 0.021 0.128 0.139 0.128 0.256 0 0.149-0.075 0.203-0.267 0.203-0.149 0-0.267 0.043-0.267 0.107 0 0.053-0.117 0.107-0.267 0.107-0.192 0-0.267 0.053-0.267 0.213 0 0.181 0.075 0.213 0.469 0.213 0.267 0 0.512 0.043 0.544 0.107 0.032 0.053 0.011 0.107-0.043 0.107-0.064 0-0.117 0.064-0.117 0.149s-0.064 0.181-0.128 0.203c-0.075 0.032 0.043 0.064 0.267 0.064 0.32 0.011 0.395 0.053 0.395 0.224 0 0.192-0.075 0.213-0.853 0.213s-0.853 0.021-0.853 0.213c0 0.16 0.075 0.213 0.267 0.213 0.149 0 0.299 0.075 0.331 0.16 0.043 0.085 0.139 0.16 0.213 0.16 0.128 0 0.149 0.171 0.107 0.981-0.032 0.544-0.107 1.003-0.171 1.024-0.139 0.053-0.139 0.448 0 0.448 0.064 0 0.107 0.384 0.107 0.949 0 0.853 0.021 0.949 0.213 1.003 0.245 0.064 0.299 0.395 0.064 0.395-0.181 0-0.331 0.352-0.181 0.405 0.192 0.064 0.128 0.427-0.075 0.48-0.128 0.032-0.117 0.053 0.064 0.064 0.235 0.011 0.683 0.331 0.469 0.331-0.064 0-0.139 0.149-0.181 0.32-0.053 0.224-0.139 0.32-0.277 0.32-0.352 0-0.224 0.213 0.149 0.235 0.256 0.011 0.213 0.032-0.192 0.085-0.715 0.096 3.936 0.096 4.96 0 0.437-0.043 0.661-0.075 0.501-0.085-0.352-0.021-0.288-0.235 0.075-0.235 0.181 0 0.267-0.085 0.352-0.352 0.139-0.459 0.075-0.608-0.267-0.619-0.181-0.011-0.224-0.032-0.096-0.064 0.192-0.053 0.256-0.459 0.075-0.459-0.171 0-0.128-0.32 0.053-0.384 0.085-0.043 0.16-0.16 0.16-0.267s-0.075-0.203-0.16-0.203c-0.128 0-0.16-0.181-0.16-0.96 0-0.565-0.043-0.96-0.107-0.96-0.128 0-0.139-0.395-0.021-0.448 0.139-0.053 0.256-0.619 0.128-0.619-0.149 0-0.139-0.501 0.011-0.555 0.171-0.053 0-0.832-0.181-0.832-0.085 0-0.149-0.075-0.149-0.16 0-0.107-0.107-0.16-0.331-0.16-0.256 0-0.32-0.043-0.288-0.192s0.171-0.181 0.864-0.213c0.736-0.032 0.821-0.053 0.821-0.235 0-0.16-0.075-0.213-0.309-0.213-0.256 0-0.299-0.032-0.256-0.213 0.032-0.117 0.096-0.213 0.149-0.213s0.096-0.053 0.096-0.107c0-0.064-0.213-0.107-0.48-0.107-0.405 0-0.48-0.032-0.48-0.213 0-0.16 0.075-0.213 0.267-0.213 0.149 0 0.267-0.053 0.267-0.107 0-0.064 0.117-0.107 0.267-0.107 0.192 0 0.267-0.053 0.267-0.203 0-0.117-0.064-0.235-0.128-0.256-0.075-0.032 0.277-0.064 0.789-0.064l0.939-0.011-0.053 0.48c-0.032 0.331-0.011 0.48 0.085 0.491 0.288 0.011-0.331 0.192-0.693 0.192-0.331 0.011-0.405 0.053-0.405 0.224s0.075 0.213 0.373 0.213c0.224 0 0.384 0.053 0.384 0.128 0.011 0.075 0.032 0.437 0.043 0.8 0.021 0.533-0.011 0.672-0.149 0.704-0.096 0.032-0.021 0.053 0.171 0.064 0.363 0.011 0.608 0.224 0.267 0.224-0.309 0-0.437 0.704-0.16 0.907 0.16 0.128 0.171 0.181 0.053 0.363-0.075 0.128-0.085 0.224-0.032 0.224 0.064 0 0.096 0.192 0.085 0.437-0.011 0.235 0.032 0.459 0.085 0.501 0.139 0.096 0.139 0.693 0 0.8-0.064 0.053-0.043 0.128 0.064 0.213 0.096 0.075 0.192 0.224 0.213 0.341 0.032 0.16 0.149 0.224 0.448 0.245 0.469 0.043 0.533 0.235 0.075 0.235-0.352 0-0.437 0.181-0.128 0.288 0.096 0.032 0.256 0.128 0.341 0.192 0.085 0.075 0.352 0.192 0.587 0.267 0.341 0.117 0.384 0.149 0.213 0.213-0.181 0.064-0.171 0.085 0.117 0.235 0.171 0.096 0.576 0.309 0.896 0.491 1.088 0.608 2.080 0.811 4 0.811 1.323 0.011 1.888-0.032 2.507-0.192 0.981-0.245 2.496-0.928 2.592-1.173 0.043-0.096 0.181-0.171 0.331-0.171 0.288 0 0.448-0.16 0.277-0.267-0.085-0.053-0.075-0.117 0.011-0.224 0.096-0.117 0.096-0.149-0.011-0.149s-0.107-0.032 0-0.16c0.075-0.096 0.309-0.16 0.544-0.16 0.469 0 0.565-0.181 0.128-0.235-0.267-0.032-0.277-0.043-0.107-0.213 0.107-0.096 0.181-0.224 0.171-0.267-0.032-0.213 0.021-0.352 0.16-0.352 0.085 0 0.181-0.117 0.213-0.267 0.043-0.149 0.181-0.32 0.309-0.363l0.235-0.085-0.245-0.075c-0.277-0.096-0.288-0.192-0.053-0.555 0.117-0.181 0.139-0.299 0.064-0.341-0.085-0.053-0.085-0.235-0.011-0.64 0.096-0.48 0.149-0.555 0.363-0.555 0.16 0 0.256-0.064 0.256-0.16 0-0.117-0.128-0.16-0.48-0.16-0.267 0-0.48-0.053-0.48-0.107 0-0.064 0.128-0.107 0.277-0.107s0.245-0.043 0.203-0.107c-0.032-0.064 0.032-0.107 0.149-0.107 0.128 0 0.224-0.064 0.224-0.149s0.043-0.171 0.096-0.192c0.053-0.021 0.128-0.213 0.171-0.437l0.075-0.395h-0.555c-0.395 0-0.533-0.043-0.512-0.139 0.032-0.064 0.181-0.139 0.331-0.16 0.331-0.043 0.416-0.437 0.107-0.459-0.128-0.011-0.107-0.043 0.075-0.096l0.267-0.085-0.288-0.011c-0.267-0.011-0.448-0.224-0.192-0.224 0.064 0 0.107-0.096 0.107-0.213s-0.075-0.213-0.16-0.213c-0.085 0-0.16-0.075-0.16-0.16s0.075-0.16 0.16-0.16c0.085 0 0.128-0.064 0.096-0.16-0.043-0.096-0.256-0.16-0.608-0.181-0.683-0.043-0.8-0.277-0.16-0.32 0.331-0.021 0.448-0.075 0.427-0.181-0.021-0.085 0.021-0.181 0.096-0.224 0.085-0.064 0.053-0.149-0.096-0.299-0.128-0.128-0.299-0.373-0.395-0.544-0.085-0.181-0.245-0.331-0.352-0.331-0.128 0-0.139-0.032-0.043-0.085 0.181-0.117-0.96-1.099-1.472-1.259-0.203-0.075-0.288-0.128-0.171-0.139 0.661-0.032-1.184-0.928-2.368-1.141-1.024-0.181-2.709-0.171-3.744 0.011zM13.419 8.608c-0.107 0.021-0.192 0.117-0.192 0.203 0 0.096-0.128 0.16-0.341 0.16-0.341 0.021-0.341 0.021-0.053 0.064 0.587 0.085 0.235 0.299-0.544 0.331-0.715 0.032-0.768 0.011-0.768-0.192 0-0.192-0.064-0.213-0.693-0.213-0.619 0-0.693-0.021-0.693-0.213 0-0.203 0.064-0.213 1.739-0.203 0.949 0.011 1.643 0.032 1.547 0.064zM20.64 8.96c0.171 0.075 0.128 0.096-0.203 0.096-0.352 0.011-0.395 0.032-0.277 0.171 0.085 0.107 0.331 0.16 0.704 0.16 0.576 0 0.832 0.16 0.565 0.341-0.117 0.075-0.107 0.128 0.096 0.267 0.235 0.171 0.32 0.459 0.128 0.459-0.256 0-0.075 0.213 0.192 0.224l0.288 0.011-0.267 0.085c-0.181 0.053-0.203 0.085-0.075 0.096 0.107 0.011 0.181 0.096 0.181 0.224 0 0.171-0.075 0.213-0.32 0.213-0.213 0-0.32 0.053-0.32 0.16 0 0.117 0.128 0.16 0.544 0.16h0.544l-0.075 0.395c-0.043 0.224-0.117 0.416-0.171 0.437s-0.096 0.107-0.096 0.192c0 0.085-0.096 0.149-0.224 0.149-0.117 0-0.181 0.043-0.149 0.107 0.043 0.064-0.053 0.107-0.203 0.107s-0.277 0.043-0.277 0.107c0 0.053 0.213 0.107 0.48 0.107 0.352 0 0.48 0.043 0.48 0.16 0 0.107-0.107 0.16-0.32 0.16-0.299 0-0.32 0.021-0.331 0.448-0.032 0.949-0.053 1.045-0.299 1.216-0.149 0.107-0.224 0.245-0.192 0.373 0.075 0.299-0.939 0.395-1.547 0.149-0.597-0.235-0.725-0.352-0.725-0.651 0-0.128-0.043-0.277-0.107-0.309-0.053-0.032-0.075-0.203-0.032-0.373 0.043-0.245 0.021-0.32-0.117-0.32-0.192 0-0.203-0.043-0.107-0.523 0.053-0.224 0.128-0.331 0.267-0.331 0.384 0 0.203-0.213-0.192-0.224-0.224-0.011-0.331-0.032-0.235-0.064 0.139-0.032 0.171-0.171 0.149-0.704-0.011-0.363-0.032-0.725-0.043-0.8 0-0.075-0.16-0.128-0.384-0.128-0.299 0-0.373-0.043-0.373-0.213 0-0.181 0.075-0.213 0.459-0.224 0.448 0 1.067-0.181 0.704-0.192-0.149-0.011-0.171-0.107-0.128-0.523 0.032-0.277 0.149-0.629 0.256-0.8l0.213-0.288-0.245-0.021c-0.299-0.011 0.672-0.16 1.195-0.171 0.203 0 0.469 0.032 0.587 0.085z"></path>
<path d="M6.187 22.72v0.96h0.64v-1.92h-0.64v0.96z"></path>
<path d="M8.533 22.72v0.96h1.013c0.939 0 1.013-0.011 1.013-0.213 0-0.192-0.075-0.213-0.693-0.213s-0.693-0.021-0.693-0.213c0-0.192 0.075-0.213 0.587-0.213 0.448 0 0.587-0.032 0.587-0.16s-0.139-0.16-0.587-0.16c-0.448 0-0.587-0.032-0.587-0.16s0.139-0.16 0.64-0.16c0.565 0 0.64-0.021 0.64-0.213 0-0.203-0.075-0.213-0.96-0.213h-0.96v0.96z"></path>
<path d="M12.427 22.72c0.469 0.928 0.491 0.96 0.853 0.96s0.384-0.032 0.853-0.96l0.48-0.96h-0.352c-0.331 0-0.373 0.043-0.661 0.651l-0.309 0.651-0.32-0.651c-0.299-0.597-0.352-0.651-0.672-0.651h-0.352l0.48 0.96z"></path>
<path d="M16.565 21.92c-0.384 0.16-0.565 0.448-0.565 0.885 0 0.672 1.056 1.099 1.792 0.725 0.299-0.16 0.341-0.16 0.341-0.011 0 0.096 0.096 0.16 0.267 0.16 0.245 0 0.267-0.032 0.267-0.533v-0.533h-0.853c-0.683 0-0.853 0.032-0.853 0.16 0 0.117 0.128 0.16 0.544 0.16 0.597 0 0.629 0.16 0.043 0.277-0.779 0.139-1.227-0.576-0.555-0.896 0.245-0.117 0.341-0.117 0.587 0 0.16 0.075 0.416 0.128 0.576 0.107 0.256-0.032 0.277-0.064 0.192-0.235-0.213-0.395-1.152-0.544-1.781-0.267z"></path>
<path d="M20.267 22.72v0.96h1.013c0.939 0 1.013-0.011 1.013-0.213 0-0.192-0.075-0.213-0.693-0.213s-0.693-0.021-0.693-0.213c0-0.192 0.075-0.213 0.587-0.213 0.448 0 0.587-0.032 0.587-0.16s-0.139-0.16-0.587-0.16c-0.448 0-0.587-0.032-0.587-0.16s0.139-0.16 0.64-0.16c0.565 0 0.64-0.021 0.64-0.213 0-0.203-0.075-0.213-0.96-0.213h-0.96v0.96z"></path>
<path d="M23.787 22.72v0.96h0.32c0.299 0 0.309-0.011 0.341-0.608l0.032-0.608 0.469 0.608c0.427 0.555 0.501 0.608 0.875 0.608h0.416v-1.92h-0.32c-0.299 0-0.309 0.011-0.341 0.608l-0.032 0.608-0.469-0.608c-0.427-0.555-0.501-0.608-0.875-0.608h-0.416v0.96z"></path>
<path d="M5.643 25.803c-0.213 0.213-0.309 0.416-0.309 0.651 0 0.448 0.501 0.96 0.949 0.96 0.843 0 1.259-1.12 0.619-1.664-0.416-0.352-0.864-0.331-1.259 0.053zM6.635 25.995c0.363 0.331 0.128 1.099-0.352 1.099-0.459 0-0.704-0.757-0.352-1.109 0.213-0.224 0.459-0.213 0.704 0.011z"></path>
<path d="M8.811 25.632c-0.128 0.096-0.181 0.245-0.149 0.448 0.021 0.267 0.107 0.341 0.491 0.48 0.299 0.107 0.448 0.213 0.448 0.341 0 0.245-0.448 0.267-0.64 0.032-0.149-0.181-0.427-0.213-0.427-0.053 0 0.053 0.096 0.203 0.213 0.32 0.448 0.448 1.387 0.107 1.248-0.448-0.053-0.213-0.192-0.32-0.523-0.427-0.469-0.16-0.608-0.427-0.267-0.491 0.107-0.021 0.256 0.032 0.32 0.128 0.096 0.117 0.171 0.139 0.288 0.064 0.139-0.096 0.128-0.139-0.096-0.32-0.288-0.245-0.629-0.277-0.907-0.075z"></path>
<path d="M11.787 25.621c-0.107 0.299-0.587 1.728-0.587 1.76 0 0.021 0.085 0.032 0.203 0.032 0.107 0 0.224-0.096 0.256-0.213 0.043-0.16 0.149-0.213 0.395-0.213s0.352 0.053 0.395 0.213c0.032 0.117 0.149 0.213 0.267 0.213 0.224 0 0.235 0.064-0.171-1.152-0.192-0.555-0.299-0.725-0.469-0.747-0.128-0.021-0.256 0.032-0.288 0.107zM12.203 26.261c0.096 0.373 0.085 0.405-0.149 0.405-0.117 0-0.213-0.032-0.213-0.085 0-0.203 0.139-0.555 0.213-0.555 0.043 0 0.107 0.107 0.149 0.235z"></path>
<path d="M14.187 26.453v0.96h0.48c0.651 0 0.981-0.181 1.12-0.597 0.16-0.48-0.021-1.035-0.384-1.205-0.149-0.064-0.48-0.117-0.736-0.117h-0.48v0.96zM15.296 25.984c0.384 0.373 0.107 1.109-0.427 1.109-0.245 0-0.256-0.032-0.256-0.64s0.011-0.64 0.256-0.64c0.149 0 0.341 0.075 0.427 0.171z"></path>
<path d="M17.376 25.771c-0.373 0.395-0.352 1.045 0.043 1.387 0.395 0.331 0.864 0.331 1.195-0.011 0.149-0.139 0.267-0.309 0.267-0.373 0-0.192-0.373-0.117-0.512 0.107-0.267 0.427-0.875 0.117-0.875-0.459 0-0.523 0.523-0.8 0.768-0.395 0.075 0.117 0.192 0.213 0.267 0.213 0.256 0 0.245-0.213-0.011-0.48-0.352-0.352-0.8-0.352-1.141 0.011z"></path>
<path d="M20.267 26.453c0 0.885 0.011 0.96 0.213 0.96 0.181 0 0.213-0.075 0.213-0.427 0-0.405 0.021-0.427 0.32-0.427s0.32 0.021 0.32 0.427c0 0.352 0.032 0.427 0.213 0.427 0.203 0 0.213-0.075 0.213-0.96s-0.011-0.96-0.213-0.96c-0.171 0-0.213 0.075-0.213 0.373 0 0.341-0.021 0.373-0.32 0.373s-0.32-0.032-0.32-0.373c0-0.299-0.043-0.373-0.213-0.373-0.203 0-0.213 0.075-0.213 0.96z"></path>
<path d="M23.147 25.547c0 0.032 0.117 0.299 0.267 0.587s0.267 0.693 0.267 0.907c0 0.299 0.043 0.373 0.213 0.373s0.213-0.075 0.213-0.373c0-0.213 0.075-0.523 0.16-0.693 0.352-0.683 0.384-0.853 0.171-0.853-0.139 0-0.245 0.117-0.331 0.373-0.064 0.203-0.16 0.373-0.203 0.373s-0.16-0.171-0.256-0.373c-0.096-0.203-0.245-0.373-0.341-0.373-0.085 0-0.16 0.021-0.16 0.053z"></path>
<path d="M25.92 26.453c0 0.885 0.011 0.96 0.213 0.96s0.213-0.075 0.213-0.96c0-0.885-0.011-0.96-0.213-0.96s-0.213 0.075-0.213 0.96z"></path>
</symbol>
</defs>
</svg>
